<mxfile host="app.diagrams.net" modified="2024-03-28T18:13:05.649Z" agent="Mozilla/5.0 (Macintosh; Intel Mac OS X 10.15; rv:124.0) Gecko/20100101 Firefox/124.0" etag="nTA4496geyvKbWGy_b_F" version="24.0.7" type="github">
  <diagram name="Page-1" id="ekQTbNEggGetkGWxemV9">
    <mxGraphModel dx="1434" dy="722" grid="1" gridSize="10" guides="1" tooltips="1" connect="1" arrows="1" fold="1" page="1" pageScale="1" pageWidth="850" pageHeight="1100" math="0" shadow="0">
      <root>
        <mxCell id="0" />
        <mxCell id="1" parent="0" />
        <mxCell id="ByOfmtU3Eh_p_D2a4Eoc-1" value="" style="sketch=0;points=[[0,0,0],[0.25,0,0],[0.5,0,0],[0.75,0,0],[1,0,0],[0,1,0],[0.25,1,0],[0.5,1,0],[0.75,1,0],[1,1,0],[0,0.25,0],[0,0.5,0],[0,0.75,0],[1,0.25,0],[1,0.5,0],[1,0.75,0]];outlineConnect=0;fontColor=#232F3E;fillColor=#8C4FFF;strokeColor=#ffffff;dashed=0;verticalLabelPosition=bottom;verticalAlign=top;align=center;html=1;fontSize=12;fontStyle=0;aspect=fixed;shape=mxgraph.aws4.resourceIcon;resIcon=mxgraph.aws4.transit_gateway;" parent="1" vertex="1">
          <mxGeometry x="500" y="120" width="78" height="78" as="geometry" />
        </mxCell>
        <mxCell id="ByOfmtU3Eh_p_D2a4Eoc-2" value="" style="sketch=0;outlineConnect=0;fontColor=#232F3E;gradientColor=none;fillColor=#8C4FFF;strokeColor=none;dashed=0;verticalLabelPosition=bottom;verticalAlign=top;align=center;html=1;fontSize=12;fontStyle=0;aspect=fixed;pointerEvents=1;shape=mxgraph.aws4.transit_gateway_attachment;" parent="1" vertex="1">
          <mxGeometry x="350" y="120" width="78" height="78" as="geometry" />
        </mxCell>
        <mxCell id="ByOfmtU3Eh_p_D2a4Eoc-3" value="&lt;div&gt;1) Check the subnet&lt;br&gt;2) Check the route table first&lt;/div&gt;&lt;div&gt;3) NACL&lt;/div&gt;&lt;div&gt;4) is ICMP allow? if allow everywhere, good to go&lt;br&gt;&lt;/div&gt;&lt;div&gt;5) Security Group&lt;/div&gt;&lt;div&gt;6) &lt;br&gt;&lt;/div&gt;" style="text;html=1;align=left;verticalAlign=middle;resizable=0;points=[];autosize=1;strokeColor=none;fillColor=none;" parent="1" vertex="1">
          <mxGeometry x="60" y="360" width="290" height="100" as="geometry" />
        </mxCell>
        <mxCell id="ByOfmtU3Eh_p_D2a4Eoc-4" value="&lt;br&gt;DB Private 1b ACL&lt;br&gt;&lt;div&gt;230 INbound&lt;/div&gt;&lt;div&gt;99 oubound&lt;br&gt;&lt;/div&gt;" style="text;html=1;align=center;verticalAlign=middle;resizable=0;points=[];autosize=1;strokeColor=none;fillColor=none;" parent="1" vertex="1">
          <mxGeometry x="540" y="388" width="120" height="70" as="geometry" />
        </mxCell>
        <mxCell id="ByOfmtU3Eh_p_D2a4Eoc-5" value="" style="outlineConnect=0;dashed=0;verticalLabelPosition=bottom;verticalAlign=top;align=center;html=1;shape=mxgraph.aws3.vpc;fillColor=#F58534;gradientColor=none;" parent="1" vertex="1">
          <mxGeometry x="701.25" y="930" width="67.5" height="81" as="geometry" />
        </mxCell>
        <mxCell id="ByOfmtU3Eh_p_D2a4Eoc-6" value="" style="outlineConnect=0;dashed=0;verticalLabelPosition=bottom;verticalAlign=top;align=center;html=1;shape=mxgraph.aws3.vpc;fillColor=#F58534;gradientColor=none;" parent="1" vertex="1">
          <mxGeometry x="90" y="600" width="67.5" height="81" as="geometry" />
        </mxCell>
        <mxCell id="muuhWxOeFJsOCDA6oe_p-1" value="Data analytics VPC&lt;br&gt;&lt;span&gt;&lt;span dir=&quot;ltr&quot; class=&quot;ui-provider a b c d e f g h i j k l m n o p q r s t u v w x y z ab ac ae af ag ah ai aj ak&quot;&gt;vpc-09f7f74af4165c321&lt;/span&gt;&lt;/span&gt;" style="text;html=1;align=center;verticalAlign=middle;resizable=0;points=[];autosize=1;strokeColor=none;fillColor=none;" vertex="1" parent="1">
          <mxGeometry x="48.75" y="555" width="150" height="40" as="geometry" />
        </mxCell>
        <mxCell id="muuhWxOeFJsOCDA6oe_p-2" value="Production VPC" style="text;html=1;align=center;verticalAlign=middle;resizable=0;points=[];autosize=1;strokeColor=none;fillColor=none;" vertex="1" parent="1">
          <mxGeometry x="680" y="1018" width="110" height="30" as="geometry" />
        </mxCell>
        <mxCell id="muuhWxOeFJsOCDA6oe_p-3" value="" style="sketch=0;points=[[0,0,0],[0.25,0,0],[0.5,0,0],[0.75,0,0],[1,0,0],[0,1,0],[0.25,1,0],[0.5,1,0],[0.75,1,0],[1,1,0],[0,0.25,0],[0,0.5,0],[0,0.75,0],[1,0.25,0],[1,0.5,0],[1,0.75,0]];outlineConnect=0;fontColor=#232F3E;fillColor=#8C4FFF;strokeColor=#ffffff;dashed=0;verticalLabelPosition=bottom;verticalAlign=top;align=center;html=1;fontSize=12;fontStyle=0;aspect=fixed;shape=mxgraph.aws4.resourceIcon;resIcon=mxgraph.aws4.transit_gateway;" vertex="1" parent="1">
          <mxGeometry x="370" y="710" width="78" height="78" as="geometry" />
        </mxCell>
        <mxCell id="muuhWxOeFJsOCDA6oe_p-4" value="tgw-064572df74fb9870e" style="text;html=1;align=center;verticalAlign=middle;resizable=0;points=[];autosize=1;strokeColor=none;fillColor=none;" vertex="1" parent="1">
          <mxGeometry x="334" y="670" width="150" height="30" as="geometry" />
        </mxCell>
        <mxCell id="muuhWxOeFJsOCDA6oe_p-5" value="" style="endArrow=classic;html=1;rounded=0;" edge="1" parent="1">
          <mxGeometry width="50" height="50" relative="1" as="geometry">
            <mxPoint x="210" y="575" as="sourcePoint" />
            <mxPoint x="340" y="660" as="targetPoint" />
          </mxGeometry>
        </mxCell>
        <mxCell id="muuhWxOeFJsOCDA6oe_p-6" value="Where is my next hop? " style="text;html=1;align=center;verticalAlign=middle;resizable=0;points=[];autosize=1;strokeColor=none;fillColor=none;" vertex="1" parent="1">
          <mxGeometry x="270" y="588" width="150" height="30" as="geometry" />
        </mxCell>
        <mxCell id="muuhWxOeFJsOCDA6oe_p-7" value="Route table&lt;br&gt;tgw-rtb-0876dbb00dS0da591" style="text;html=1;align=center;verticalAlign=middle;resizable=0;points=[];autosize=1;strokeColor=none;fillColor=none;" vertex="1" parent="1">
          <mxGeometry x="470" y="710" width="180" height="40" as="geometry" />
        </mxCell>
        <mxCell id="muuhWxOeFJsOCDA6oe_p-8" value="&lt;div&gt;172.31.x.x. ??? where should i go?&lt;br&gt;&lt;/div&gt;" style="text;html=1;align=center;verticalAlign=middle;resizable=0;points=[];autosize=1;strokeColor=none;fillColor=none;" vertex="1" parent="1">
          <mxGeometry x="491.25" y="681" width="210" height="30" as="geometry" />
        </mxCell>
      </root>
    </mxGraphModel>
  </diagram>
</mxfile>
